<svg xmlns="http://www.w3.org/2000/svg" xmlns:xlink="http://www.w3.org/1999/xlink" xmlns:lucid="lucid" width="620" height="340"><g transform="translate(-50 0)" lucid:page-tab-id="0_0"><path d="M0 0h1870.4v1323.2H0z" fill="#fff"/><path d="M420 20h60v60h-60z" stroke="#333" stroke-width="2" fill="#fff"/><use xlink:href="#a" transform="matrix(1,0,0,1,425,25) translate(8.950617283950624 33.2361111111111)"/><path d="M160 140h60v60h-60z" stroke="#333" stroke-width="2" fill="#fff"/><use xlink:href="#b" transform="matrix(1,0,0,1,165,145) translate(16.97530864197531 33.2361111111111)"/><path d="M220 140h60v60h-60z" stroke="#333" stroke-width="2" fill="#fff"/><use xlink:href="#c" transform="matrix(1,0,0,1,225,145) translate(16.97530864197531 33.2361111111111)"/><path d="M280 140h60v60h-60z" stroke="#333" stroke-width="2" fill="#fff"/><use xlink:href="#d" transform="matrix(1,0,0,1,285,145) translate(8.950617283950624 33.2361111111111)"/><path d="M341 170" stroke="#333" stroke-width="2" fill="none"/><path stroke="#333" stroke-width=".05" fill="#333"/><path stroke="#333" stroke-width=".05" fill="#333"/><path d="M323 180" stroke="#333" stroke-width="2" fill="none"/><path d="M540 140h60v60h-60z" stroke="#333" stroke-width="2" fill="#fff"/><use xlink:href="#e" transform="matrix(1,0,0,1,545,145) translate(8.950617283950624 33.2361111111111)"/><path d="M418.05 81.32l-167.1 57.36" stroke="#333" stroke-width="2" fill="none"/><path d="M419 81h3.08l-3.73 1.28-.64-1.9 1.3-.44zM251.08 139h-4.16l3.73-1.28z" stroke="#333" stroke-width=".05" fill="#333"/><path d="M481.84 81.55l87.32 56.9" stroke="#333" stroke-width="2" fill="none"/><path d="M482.4 80.72l-1.1 1.68-2.13-1.4H481v-1.2zM571.83 139h-3.05l.9-1.4z" stroke="#333" stroke-width=".05" fill="#333"/><path d="M70 260h60v60H70z" stroke="#333" stroke-width="2" fill="#fff"/><use xlink:href="#f" transform="matrix(1,0,0,1,75,265) translate(16.97530864197531 33.2361111111111)"/><path d="M170 260h60v60h-60z" stroke="#333" stroke-width="2" fill="#fff"/><use xlink:href="#g" transform="matrix(1,0,0,1,175,265) translate(16.97530864197531 33.2361111111111)"/><path d="M270 260h60v60h-60z" stroke="#333" stroke-width="2" fill="#fff"/><use xlink:href="#h" transform="matrix(1,0,0,1,275,265) translate(16.97530864197531 33.2361111111111)"/><path d="M370 260h60v60h-60z" stroke="#333" stroke-width="2" fill="#fff"/><use xlink:href="#i" transform="matrix(1,0,0,1,375,265) translate(10.033950617283956 33.2361111111111)"/><path d="M158.3 201.7l-57.6 56.6" stroke="#333" stroke-width="2" fill="none"/><path d="M159 201h1.43l-1.46 1.43-1.4-1.42 1.43-1.4zM101.43 259h-2.86l1.46-1.43z" stroke="#333" stroke-width=".05" fill="#333"/><path d="M219.18 201.95l-18.86 56.1" stroke="#333" stroke-width="2" fill="none"/><path d="M220.12 202.3l-1.9-.65.22-.65h2.12zm1.28-3.82l-.4 1.2v-1.34zM201.27 258.35l-.2.65h-2.13l.44-1.3z" stroke="#333" stroke-width=".05" fill="#333"/><path d="M281.2 201.95l18.5 56.1" stroke="#333" stroke-width="2" fill="none"/><path d="M282.15 201.66l-1.9.63-.43-1.3H281v-2.8zM301.05 259h-2.1l-.22-.66 1.9-.63z" stroke="#333" stroke-width=".05" fill="#333"/><path d="M341.7 201.7l57.6 56.6" stroke="#333" stroke-width="2" fill="none"/><path d="M342.43 201l-1.4 1.43-1.46-1.43H341v-1.4zM401.43 259h-2.86l1.4-1.43z" stroke="#333" stroke-width=".05" fill="#333"/><path d="M490 260h60v60h-60z" stroke="#333" stroke-width="2" fill="#fff"/><use xlink:href="#j" transform="matrix(1,0,0,1,495,265) translate(8.950617283950624 33.2361111111111)"/><path d="M590 260h60v60h-60z" stroke="#333" stroke-width="2" fill="#fff"/><use xlink:href="#k" transform="matrix(1,0,0,1,595,265) translate(8.950617283950624 33.2361111111111)"/><path d="M538.7 201.95l-18.4 56.1" stroke="#333" stroke-width="2" fill="none"/><path d="M539 197.84V201h1.05l-.42 1.3-1.9-.64 1.25-3.82zM521.27 258.34l-.22.66h-2.1l.42-1.3z" stroke="#333" stroke-width=".05" fill="#333"/><path d="M601.3 201.95l18.4 56.1" stroke="#333" stroke-width="2" fill="none"/><path d="M602.27 201.66l-1.9.63-.42-1.3H601v-3.16h.02zM621.05 259h-2.1l-.22-.66 1.9-.63z" stroke="#333" stroke-width=".05" fill="#333"/><defs><path fill="#333" d="M27 0v-27h64v-190l-56 39v-29l58-41h29v221h61V0H27" id="l"/><path fill="#333" d="M101-251c82-7 93 87 43 132L82-64C71-53 59-42 53-27h129V0H18c2-99 128-94 128-182 0-28-16-43-45-43s-46 15-49 41l-32-3c6-41 34-60 81-64" id="m"/><g id="a"><use transform="matrix(0.08024691358024688,0,0,0.08024691358024688,0,0)" xlink:href="#l"/><use transform="matrix(0.08024691358024688,0,0,0.08024691358024688,16.049382716049376,0)" xlink:href="#m"/></g><path fill="#333" d="M54-142c48-35 137-8 131 61C196 18 31 33 14-55l32-4c7 23 22 37 52 37 35-1 51-22 54-58 4-55-73-65-99-34H22l8-134h141v27H59" id="n"/><use transform="matrix(0.08024691358024688,0,0,0.08024691358024688,0,0)" xlink:href="#n" id="b"/><path fill="#333" d="M134-131c28 9 52 24 51 62-1 50-34 73-85 73S17-19 16-69c0-36 21-54 49-61-75-25-45-126 34-121 46 3 78 18 79 63 0 33-17 51-44 57zm-34-11c31 1 46-15 46-44 0-28-17-43-47-42-29 0-46 13-45 42 1 28 16 44 46 44zm1 122c35 0 51-18 51-52 0-30-18-46-53-46-33 0-51 17-51 47 0 34 19 51 53 51" id="o"/><use transform="matrix(0.08024691358024688,0,0,0.08024691358024688,0,0)" xlink:href="#o" id="c"/><path fill="#333" d="M101-251c68 0 85 55 85 127S166 4 100 4C33 4 14-52 14-124c0-73 17-127 87-127zm-1 229c47 0 54-49 54-102s-4-102-53-102c-51 0-55 48-55 102 0 53 5 102 54 102" id="p"/><g id="d"><use transform="matrix(0.08024691358024688,0,0,0.08024691358024688,0,0)" xlink:href="#l"/><use transform="matrix(0.08024691358024688,0,0,0.08024691358024688,16.049382716049376,0)" xlink:href="#p"/></g><g id="e"><use transform="matrix(0.08024691358024688,0,0,0.08024691358024688,0,0)" xlink:href="#l"/><use transform="matrix(0.08024691358024688,0,0,0.08024691358024688,16.049382716049376,0)" xlink:href="#n"/></g><path fill="#333" d="M126-127c33 6 58 20 58 59 0 88-139 92-164 29-3-8-5-16-6-25l32-3c6 27 21 44 54 44 32 0 52-15 52-46 0-38-36-46-79-43v-28c39 1 72-4 72-42 0-27-17-43-46-43-28 0-47 15-49 41l-32-3c6-42 35-63 81-64 48-1 79 21 79 65 0 36-21 52-52 59" id="q"/><use transform="matrix(0.08024691358024688,0,0,0.08024691358024688,0,0)" xlink:href="#q" id="f"/><path fill="#333" d="M110-160c48 1 74 30 74 79 0 53-28 85-80 85-65 0-83-55-86-122-5-90 50-162 133-122 14 7 22 21 27 39l-31 6c-5-40-67-38-82-6-9 19-15 44-15 74 11-20 30-34 60-33zm-7 138c34 0 49-23 49-58s-16-56-50-56c-29 0-50 16-49 49 1 36 15 65 50 65" id="r"/><use transform="matrix(0.08024691358024688,0,0,0.08024691358024688,0,0)" xlink:href="#r" id="g"/><path fill="#333" d="M99-251c64 0 84 50 84 122C183-37 130 33 47-8c-14-7-20-23-25-40l30-5c6 39 69 39 84 7 9-19 16-44 16-74-10 22-31 35-62 35-49 0-73-33-73-83 0-54 28-83 82-83zm-1 141c31-1 51-18 51-49 0-36-14-67-51-67-34 0-49 23-49 58 0 34 15 58 49 58" id="s"/><use transform="matrix(0.08024691358024688,0,0,0.08024691358024688,0,0)" xlink:href="#s" id="h"/><g id="i"><use transform="matrix(0.08024691358024688,0,0,0.08024691358024688,0,0)" xlink:href="#l"/><use transform="matrix(0.08024691358024688,0,0,0.08024691358024688,13.88271604938271,0)" xlink:href="#l"/></g><path fill="#333" d="M155-56V0h-30v-56H8v-25l114-167h33v167h35v25h-35zm-30-156c-27 46-58 90-88 131h88v-131" id="t"/><g id="j"><use transform="matrix(0.08024691358024688,0,0,0.08024691358024688,0,0)" xlink:href="#l"/><use transform="matrix(0.08024691358024688,0,0,0.08024691358024688,16.049382716049376,0)" xlink:href="#t"/></g><path fill="#333" d="M64 0c3-98 48-159 88-221H18v-27h164v26C143-157 98-101 97 0H64" id="u"/><g id="k"><use transform="matrix(0.08024691358024688,0,0,0.08024691358024688,0,0)" xlink:href="#l"/><use transform="matrix(0.08024691358024688,0,0,0.08024691358024688,16.049382716049376,0)" xlink:href="#u"/></g></defs></g></svg>