<?xml version="1.0" encoding="utf-8"?>
<svg width="820" height="348" xmlns="http://www.w3.org/2000/svg" xmlns:xlink="http://www.w3.org/1999/xlink">
  <g transform="translate(12 9)">
    <path d="M 0 0 L 797.974 0 L 797.974 327.903 L 0 327.903 L 0 0 Z" fill="#fff" style=""/>
    <path d="M320 209c0 14.36-11.64 26-26 26s-26-11.64-26-26 11.64-26 26-26 26 11.64 26 26z" stroke="#000" stroke-width="2" fill="#fff"/>
    <g transform="matrix(1, 0, 0, 1, 279.061728477478, 217.37777709960938)">
      <use transform="matrix(0.0746913580246913,0,0,0.0746913580246913,0,0)" xlink:href="#q"/>
      <use transform="matrix(0.0746913580246913,0,0,0.0746913580246913,14.938271604938262,0)" xlink:href="#r"/>
    </g>
    <path d="M268 293c0 14.36-11.64 26-26 26s-26-11.64-26-26 11.64-26 26-26 26 11.64 26 26z" stroke="#000" stroke-width="2" fill="#fff"/>
    <g transform="matrix(1, 0, 0, 1, 227.06172847747803, 301.3777770996094)">
      <use transform="matrix(0.0746913580246913,0,0,0.0746913580246913,0,0)" xlink:href="#q"/>
      <use transform="matrix(0.0746913580246913,0,0,0.0746913580246913,14.938271604938262,0)" xlink:href="#s"/>
    </g>
    <path d="M372 293c0 14.36-11.64 26-26 26s-26-11.64-26-26 11.64-26 26-26 26 11.64 26 26z" stroke="#000" stroke-width="2" fill="#fff"/>
    <g transform="matrix(1, 0, 0, 1, 331.061728477478, 301.3777770996094)">
      <use transform="matrix(0.0746913580246913,0,0,0.0746913580246913,0,0)" xlink:href="#q"/>
      <use transform="matrix(0.0746913580246913,0,0,0.0746913580246913,14.938271604938262,0)" xlink:href="#t"/>
    </g>
    <path d="M256.72 269.23l22.56-36.46" stroke="#000" stroke-width="2" fill="none"/>
    <path d="M257.58 269.73l-.54.88-.33-.25-1.4-.74.58-.92zM279.3 231.65l1.4.74-.58.92-1.7-1.05.54-.88z" stroke="#000" stroke-width=".05"/>
    <path d="M331.3 269.27l-22.6-36.54" stroke="#000" stroke-width="2" fill="none"/>
    <path d="M332.7 269.63l-1.73.98-.52-.82 1.7-1.06zM309.55 232.22l-1.7 1.06-.56-.9 1.73-1z" stroke="#000" stroke-width=".05"/>
    <path d="M528 209c0 14.36-11.64 26-26 26s-26-11.64-26-26 11.64-26 26-26 26 11.64 26 26z" stroke="#000" stroke-width="2" fill="#fff"/>
    <g transform="matrix(1, 0, 0, 1, 487.061728477478, 217.37777709960938)">
      <use transform="matrix(0.0746913580246913,0,0,0.0746913580246913,0,0)" xlink:href="#u"/>
      <use transform="matrix(0.0746913580246913,0,0,0.0746913580246913,14.938271604938262,0)" xlink:href="#v"/>
    </g>
    <path d="M476 293c0 14.36-11.64 26-26 26s-26-11.64-26-26 11.64-26 26-26 26 11.64 26 26z" stroke="#000" stroke-width="2" fill="#fff"/>
    <g transform="matrix(1, 0, 0, 1, 435.061728477478, 301.3777770996094)">
      <use transform="matrix(0.0746913580246913,0,0,0.0746913580246913,0,0)" xlink:href="#u"/>
      <use transform="matrix(0.0746913580246913,0,0,0.0746913580246913,14.938271604938262,0)" xlink:href="#q"/>
    </g>
    <path d="M580 293c0 14.36-11.64 26-26 26s-26-11.64-26-26 11.64-26 26-26 26 11.64 26 26z" stroke="#000" stroke-width="2" fill="#fff"/>
    <g transform="matrix(1, 0, 0, 1, 539.061728477478, 301.3777770996094)">
      <use transform="matrix(0.0746913580246913,0,0,0.0746913580246913,0,0)" xlink:href="#u"/>
      <use transform="matrix(0.0746913580246913,0,0,0.0746913580246913,14.938271604938262,0)" xlink:href="#t"/>
    </g>
    <path d="M464.72 269.23l22.56-36.46" stroke="#000" stroke-width="2" fill="none"/>
    <path d="M465.58 269.73l-.54.88-.33-.25-1.4-.74.58-.92zM487.3 231.65l1.4.74-.58.92-1.7-1.05.54-.88z" stroke="#000" stroke-width=".05"/>
    <path d="M539.3 269.27l-22.6-36.54" stroke="#000" stroke-width="2" fill="none"/>
    <path d="M540.7 269.63l-1.73.98-.52-.82 1.7-1.06zM517.55 232.22l-1.7 1.06-.56-.9 1.73-1z" stroke="#000" stroke-width=".05"/>
    <path d="M684 293c0 14.36-11.64 26-26 26s-26-11.64-26-26 11.64-26 26-26 26 11.64 26 26z" stroke="#000" stroke-width="2" fill="#fff"/>
    <g transform="matrix(1, 0, 0, 1, 643.061728477478, 301.3777770996094)">
      <use transform="matrix(0.0746913580246913,0,0,0.0746913580246913,0,0)" xlink:href="#s"/>
      <use transform="matrix(0.0746913580246913,0,0,0.0746913580246913,14.938271604938262,0)" xlink:href="#s"/>
    </g>
    <path d="M736 209c0 14.36-11.64 26-26 26s-26-11.64-26-26 11.64-26 26-26 26 11.64 26 26z" stroke="#000" stroke-width="2" fill="#fff"/>
    <g transform="matrix(1, 0, 0, 1, 695.061728477478, 217.37777709960938)">
      <use transform="matrix(0.0746913580246913,0,0,0.0746913580246913,0,0)" xlink:href="#s"/>
      <use transform="matrix(0.0746913580246913,0,0,0.0746913580246913,14.938271604938262,0)" xlink:href="#r"/>
    </g>
    <path d="M788 293c0 14.36-11.64 26-26 26s-26-11.64-26-26 11.64-26 26-26 26 11.64 26 26z" stroke="#000" stroke-width="2" fill="#fff"/>
    <g transform="matrix(1, 0, 0, 1, 747.061728477478, 301.3777770996094)">
      <use transform="matrix(0.0746913580246913,0,0,0.0746913580246913,0,0)" xlink:href="#s"/>
      <use transform="matrix(0.0746913580246913,0,0,0.0746913580246913,14.938271604938262,0)" xlink:href="#w"/>
    </g>
    <path d="M695.28 232.77l-22.56 36.46" stroke="#000" stroke-width="2" fill="none"/>
    <path d="M695.3 231.65l1.4.74-.58.92-1.7-1.05.54-.88zM673.58 269.73l-.54.88-.33-.25-1.4-.74.58-.92z" stroke="#000" stroke-width=".05"/>
    <path d="M724.7 232.73l22.6 36.54" stroke="#000" stroke-width="2" fill="none"/>
    <path d="M725.55 232.22l-1.7 1.06-.56-.9 1.73-1zM748.7 269.63l-1.73.98-.52-.82 1.7-1.06z" stroke="#000" stroke-width=".05"/>
    <path d="M424 37c0 14.36-11.64 26-26 26s-26-11.64-26-26 11.64-26 26-26 26 11.64 26 26z" stroke="#000" stroke-width="2" fill="#fff"/>
    <g transform="matrix(1, 0, 0, 1, 383.061728477478, 45.377777099609375)">
      <use transform="matrix(0.0746913580246913,0,0,0.0746913580246913,0,0)" xlink:href="#u"/>
      <use transform="matrix(0.0746913580246913,0,0,0.0746913580246913,14.938271604938262,0)" xlink:href="#y"/>
    </g>
    <path d="M216 125c0 14.36-11.64 26-26 26s-26-11.64-26-26 11.64-26 26-26 26 11.64 26 26z" stroke="#000" stroke-width="2" fill="#fff"/>
    <g transform="matrix(1, 0, 0, 1, 176.07006168365479, 133.37777709960938)">
      <use transform="matrix(0.0746913580246913,0,0,0.0746913580246913,0,0)" xlink:href="#q"/>
      <use transform="matrix(0.0746913580246913,0,0,0.0746913580246913,12.921604938271596,0)" xlink:href="#q"/>
    </g>
    <path d="M632 125c0 14.36-11.64 26-26 26s-26-11.64-26-26 11.64-26 26-26 26 11.64 26 26z" stroke="#000" stroke-width="2" fill="#fff"/>
    <g transform="matrix(1, 0, 0, 1, 591.061728477478, 133.37777709960938)">
      <use transform="matrix(0.0746913580246913,0,0,0.0746913580246913,0,0)" xlink:href="#s"/>
      <use transform="matrix(0.0746913580246913,0,0,0.0746913580246913,14.938271604938262,0)" xlink:href="#u"/>
    </g>
    <path d="M112 209c0 14.36-11.64 26-26 26s-26-11.64-26-26 11.64-26 26-26 26 11.64 26 26z" stroke="#000" stroke-width="2" fill="#fff"/>
    <use transform="matrix(0.07469137012958527, 0, 0, 0.07469137012958527, 78.53086471557617, 217.37777709960938)" xlink:href="#z"/>
    <path d="M60 293c0 14.36-11.64 26-26 26S8 307.36 8 293s11.64-26 26-26 26 11.64 26 26z" stroke="#000" stroke-width="2" fill="#fff"/>
    <use transform="matrix(0.07469137012958527, 0, 0, 0.07469137012958527, 26.530864715576172, 301.3777770996094)" xlink:href="#s"/>
    <path d="M164 293c0 14.36-11.64 26-26 26s-26-11.64-26-26 11.64-26 26-26 26 11.64 26 26z" stroke="#000" stroke-width="2" fill="#fff"/>
    <use transform="matrix(0.07469137012958527, 0, 0, 0.07469137012958527, 130.53086471557617, 301.3777770996094)" xlink:href="#A"/>
    <path d="M48.72 269.23l22.56-36.46" stroke="#000" stroke-width="2" fill="none"/>
    <path d="M49.58 269.73l-.54.88-.33-.25-1.4-.74.58-.92zM71.3 231.65l1.4.74-.58.92-1.7-1.05.54-.88z" stroke="#000" stroke-width=".05"/>
    <path d="M123.3 269.27l-22.6-36.54" stroke="#000" stroke-width="2" fill="none"/>
    <path d="M124.7 269.63l-1.73.98-.52-.82 1.7-1.06zM101.55 232.22l-1.7 1.06-.56-.9 1.73-1z" stroke="#000" stroke-width=".05"/>
    <path d="M107.7 191.48l60.6-48.96" stroke="#000" stroke-width="2" fill="none"/>
    <path d="M108.34 192.24l-.77.63-1.3-1.53.82-.66zM169.73 142.66l-.82.66-1.24-1.56.77-.63z" stroke="#000" stroke-width=".05"/>
    <path d="M272.3 191.48l-60.6-48.96" stroke="#000" stroke-width="2" fill="none"/>
    <path d="M273.7 191.33l-1.24 1.56-.8-.66 1.26-1.55zM212.34 141.76l-1.26 1.55-.8-.63 1.26-1.56z" stroke="#000" stroke-width=".05"/>
    <path d="M523.7 191.48l60.6-48.96" stroke="#000" stroke-width="2" fill="none"/>
    <path d="M524.34 192.24l-.77.63-1.3-1.53.82-.66zM585.73 142.66l-.82.66-1.24-1.56.77-.63z" stroke="#000" stroke-width=".05"/>
    <path d="M688.3 191.48l-60.6-48.96" stroke="#000" stroke-width="2" fill="none"/>
    <path d="M689.7 191.33l-1.24 1.56-.8-.66 1.26-1.55zM628.34 141.76l-1.26 1.55-.8-.63 1.26-1.56z" stroke="#000" stroke-width=".05"/>
    <path d="M372.24 47.9l-156.48 66.2" stroke="#000" stroke-width="2" fill="none"/>
    <path d="M373.3 47.93l.28.5-.98.4-.78-1.84 1.02-.44zM216.18 115l-1.02.44-.46-1.37-.28-.5.98-.4z" stroke="#000" stroke-width=".05"/>
    <path d="M423.76 47.9l156.48 66.2" stroke="#000" stroke-width="2" fill="none"/>
    <path d="M424.18 47l-.78 1.83-1.02-.43.66-1.27.16-.55zM581.62 113.6l-.66 1.27-.16.55-.98-.4.78-1.85z" stroke="#000" stroke-width=".05"/>
    <defs>
      <path d="M27 0v-27h64v-190l-56 39v-29l58-41h29v221h61V0H27" id="q"/>
      <path d="M110-160c48 1 74 30 74 79 0 53-28 85-80 85-65 0-83-55-86-122-5-90 50-162 133-122 14 7 22 21 27 39l-31 6c-5-40-67-38-82-6-9 19-15 44-15 74 11-20 30-34 60-33zm-7 138c34 0 49-23 49-58s-16-56-50-56c-29 0-50 16-49 49 1 36 15 65 50 65" id="r"/>
      <g id="a">
        <path d="M27 0v-27h64v-190l-56 39v-29l58-41h29v221h61V0H27" transform="matrix(0.07469137012958527, 0, 0, 0.07469137012958527, 0, 0)"/>
        <path d="M110-160c48 1 74 30 74 79 0 53-28 85-80 85-65 0-83-55-86-122-5-90 50-162 133-122 14 7 22 21 27 39l-31 6c-5-40-67-38-82-6-9 19-15 44-15 74 11-20 30-34 60-33zm-7 138c34 0 49-23 49-58s-16-56-50-56c-29 0-50 16-49 49 1 36 15 65 50 65" transform="matrix(0.07469137012958527, 0, 0, 0.07469137012958527, 14.938271522521973, 0)"/>
      </g>
      <path d="M126-127c33 6 58 20 58 59 0 88-139 92-164 29-3-8-5-16-6-25l32-3c6 27 21 44 54 44 32 0 52-15 52-46 0-38-36-46-79-43v-28c39 1 72-4 72-42 0-27-17-43-46-43-28 0-47 15-49 41l-32-3c6-42 35-63 81-64 48-1 79 21 79 65 0 36-21 52-52 59" id="s"/>
      <g id="b">
        <path d="M27 0v-27h64v-190l-56 39v-29l58-41h29v221h61V0H27" transform="matrix(0.07469137012958527, 0, 0, 0.07469137012958527, 0, 0)"/>
        <path d="M126-127c33 6 58 20 58 59 0 88-139 92-164 29-3-8-5-16-6-25l32-3c6 27 21 44 54 44 32 0 52-15 52-46 0-38-36-46-79-43v-28c39 1 72-4 72-42 0-27-17-43-46-43-28 0-47 15-49 41l-32-3c6-42 35-63 81-64 48-1 79 21 79 65 0 36-21 52-52 59" transform="matrix(0.07469137012958527, 0, 0, 0.07469137012958527, 14.938271522521973, 0)"/>
      </g>
      <path d="M134-131c28 9 52 24 51 62-1 50-34 73-85 73S17-19 16-69c0-36 21-54 49-61-75-25-45-126 34-121 46 3 78 18 79 63 0 33-17 51-44 57zm-34-11c31 1 46-15 46-44 0-28-17-43-47-42-29 0-46 13-45 42 1 28 16 44 46 44zm1 122c35 0 51-18 51-52 0-30-18-46-53-46-33 0-51 17-51 47 0 34 19 51 53 51" id="t"/>
      <g id="c">
        <path d="M27 0v-27h64v-190l-56 39v-29l58-41h29v221h61V0H27" transform="matrix(0.07469137012958527, 0, 0, 0.07469137012958527, 0, 0)"/>
        <path d="M134-131c28 9 52 24 51 62-1 50-34 73-85 73S17-19 16-69c0-36 21-54 49-61-75-25-45-126 34-121 46 3 78 18 79 63 0 33-17 51-44 57zm-34-11c31 1 46-15 46-44 0-28-17-43-47-42-29 0-46 13-45 42 1 28 16 44 46 44zm1 122c35 0 51-18 51-52 0-30-18-46-53-46-33 0-51 17-51 47 0 34 19 51 53 51" transform="matrix(0.07469137012958527, 0, 0, 0.07469137012958527, 14.938271522521973, 0)"/>
      </g>
      <path d="M101-251c82-7 93 87 43 132L82-64C71-53 59-42 53-27h129V0H18c2-99 128-94 128-182 0-28-16-43-45-43s-46 15-49 41l-32-3c6-41 34-60 81-64" id="u"/>
      <path d="M54-142c48-35 137-8 131 61C196 18 31 33 14-55l32-4c7 23 22 37 52 37 35-1 51-22 54-58 4-55-73-65-99-34H22l8-134h141v27H59" id="v"/>
      <g id="d">
        <path d="M101-251c82-7 93 87 43 132L82-64C71-53 59-42 53-27h129V0H18c2-99 128-94 128-182 0-28-16-43-45-43s-46 15-49 41l-32-3c6-41 34-60 81-64" transform="matrix(0.07469137012958527, 0, 0, 0.07469137012958527, 0, 0)"/>
        <path d="M54-142c48-35 137-8 131 61C196 18 31 33 14-55l32-4c7 23 22 37 52 37 35-1 51-22 54-58 4-55-73-65-99-34H22l8-134h141v27H59" transform="matrix(0.07469137012958527, 0, 0, 0.07469137012958527, 14.938271522521973, 0)"/>
      </g>
      <g id="e">
        <path d="M101-251c82-7 93 87 43 132L82-64C71-53 59-42 53-27h129V0H18c2-99 128-94 128-182 0-28-16-43-45-43s-46 15-49 41l-32-3c6-41 34-60 81-64" transform="matrix(0.07469137012958527, 0, 0, 0.07469137012958527, 0, 0)"/>
        <path d="M27 0v-27h64v-190l-56 39v-29l58-41h29v221h61V0H27" transform="matrix(0.07469137012958527, 0, 0, 0.07469137012958527, 14.938271522521973, 0)"/>
      </g>
      <g id="f">
        <path d="M101-251c82-7 93 87 43 132L82-64C71-53 59-42 53-27h129V0H18c2-99 128-94 128-182 0-28-16-43-45-43s-46 15-49 41l-32-3c6-41 34-60 81-64" transform="matrix(0.07469137012958527, 0, 0, 0.07469137012958527, 0, 0)"/>
        <path d="M134-131c28 9 52 24 51 62-1 50-34 73-85 73S17-19 16-69c0-36 21-54 49-61-75-25-45-126 34-121 46 3 78 18 79 63 0 33-17 51-44 57zm-34-11c31 1 46-15 46-44 0-28-17-43-47-42-29 0-46 13-45 42 1 28 16 44 46 44zm1 122c35 0 51-18 51-52 0-30-18-46-53-46-33 0-51 17-51 47 0 34 19 51 53 51" transform="matrix(0.07469137012958527, 0, 0, 0.07469137012958527, 14.938271522521973, 0)"/>
      </g>
      <g id="g">
        <path d="M126-127c33 6 58 20 58 59 0 88-139 92-164 29-3-8-5-16-6-25l32-3c6 27 21 44 54 44 32 0 52-15 52-46 0-38-36-46-79-43v-28c39 1 72-4 72-42 0-27-17-43-46-43-28 0-47 15-49 41l-32-3c6-42 35-63 81-64 48-1 79 21 79 65 0 36-21 52-52 59" transform="matrix(0.07469137012958527, 0, 0, 0.07469137012958527, 0, 0)"/>
        <path d="M126-127c33 6 58 20 58 59 0 88-139 92-164 29-3-8-5-16-6-25l32-3c6 27 21 44 54 44 32 0 52-15 52-46 0-38-36-46-79-43v-28c39 1 72-4 72-42 0-27-17-43-46-43-28 0-47 15-49 41l-32-3c6-42 35-63 81-64 48-1 79 21 79 65 0 36-21 52-52 59" transform="matrix(0.07469137012958527, 0, 0, 0.07469137012958527, 14.938271522521973, 0)"/>
      </g>
      <g id="h">
        <path d="M126-127c33 6 58 20 58 59 0 88-139 92-164 29-3-8-5-16-6-25l32-3c6 27 21 44 54 44 32 0 52-15 52-46 0-38-36-46-79-43v-28c39 1 72-4 72-42 0-27-17-43-46-43-28 0-47 15-49 41l-32-3c6-42 35-63 81-64 48-1 79 21 79 65 0 36-21 52-52 59" transform="matrix(0.07469137012958527, 0, 0, 0.07469137012958527, 0, 0)"/>
        <path d="M110-160c48 1 74 30 74 79 0 53-28 85-80 85-65 0-83-55-86-122-5-90 50-162 133-122 14 7 22 21 27 39l-31 6c-5-40-67-38-82-6-9 19-15 44-15 74 11-20 30-34 60-33zm-7 138c34 0 49-23 49-58s-16-56-50-56c-29 0-50 16-49 49 1 36 15 65 50 65" transform="matrix(0.07469137012958527, 0, 0, 0.07469137012958527, 14.938271522521973, 0)"/>
      </g>
      <path d="M99-251c64 0 84 50 84 122C183-37 130 33 47-8c-14-7-20-23-25-40l30-5c6 39 69 39 84 7 9-19 16-44 16-74-10 22-31 35-62 35-49 0-73-33-73-83 0-54 28-83 82-83zm-1 141c31-1 51-18 51-49 0-36-14-67-51-67-34 0-49 23-49 58 0 34 15 58 49 58" id="w"/>
      <g id="i">
        <path d="M126-127c33 6 58 20 58 59 0 88-139 92-164 29-3-8-5-16-6-25l32-3c6 27 21 44 54 44 32 0 52-15 52-46 0-38-36-46-79-43v-28c39 1 72-4 72-42 0-27-17-43-46-43-28 0-47 15-49 41l-32-3c6-42 35-63 81-64 48-1 79 21 79 65 0 36-21 52-52 59" transform="matrix(0.07469137012958527, 0, 0, 0.07469137012958527, 0, 0)"/>
        <path d="M99-251c64 0 84 50 84 122C183-37 130 33 47-8c-14-7-20-23-25-40l30-5c6 39 69 39 84 7 9-19 16-44 16-74-10 22-31 35-62 35-49 0-73-33-73-83 0-54 28-83 82-83zm-1 141c31-1 51-18 51-49 0-36-14-67-51-67-34 0-49 23-49 58 0 34 15 58 49 58" transform="matrix(0.07469137012958527, 0, 0, 0.07469137012958527, 14.938271522521973, 0)"/>
      </g>
      <path d="M682 16c-209 0-323-80-324-285v-671H190v-142h170l58-282h120v282h432v142H538v652c2 114 60 155 182 155 106 0 209-16 297-34v137C921-4 806 16 682 16" id="x"/>
      <path d="M682 16c-209 0-323-80-324-285v-671H190v-142h170l58-282h120v282h432v142H538v652c2 114 60 155 182 155 106 0 209-16 297-34v137C921-4 806 16 682 16" id="j" transform="matrix(0.01312934048473835, 0, 0, 0.01312934048473835, 0, 0)"/>
      <path d="M101-251c68 0 85 55 85 127S166 4 100 4C33 4 14-52 14-124c0-73 17-127 87-127zm-1 229c47 0 54-49 54-102s-4-102-53-102c-51 0-55 48-55 102 0 53 5 102 54 102" id="y"/>
      <g id="k">
        <path d="M101-251c82-7 93 87 43 132L82-64C71-53 59-42 53-27h129V0H18c2-99 128-94 128-182 0-28-16-43-45-43s-46 15-49 41l-32-3c6-41 34-60 81-64" transform="matrix(0.07469137012958527, 0, 0, 0.07469137012958527, 0, 0)"/>
        <path d="M101-251c68 0 85 55 85 127S166 4 100 4C33 4 14-52 14-124c0-73 17-127 87-127zm-1 229c47 0 54-49 54-102s-4-102-53-102c-51 0-55 48-55 102 0 53 5 102 54 102" transform="matrix(0.07469137012958527, 0, 0, 0.07469137012958527, 14.938271522521973, 0)"/>
      </g>
      <g id="l">
        <path d="M27 0v-27h64v-190l-56 39v-29l58-41h29v221h61V0H27" transform="matrix(0.07469137012958527, 0, 0, 0.07469137012958527, 0, 0)"/>
        <path d="M27 0v-27h64v-190l-56 39v-29l58-41h29v221h61V0H27" transform="matrix(0.07469137012958527, 0, 0, 0.07469137012958527, 12.921605110168457, 0)"/>
      </g>
      <g id="m">
        <path d="M126-127c33 6 58 20 58 59 0 88-139 92-164 29-3-8-5-16-6-25l32-3c6 27 21 44 54 44 32 0 52-15 52-46 0-38-36-46-79-43v-28c39 1 72-4 72-42 0-27-17-43-46-43-28 0-47 15-49 41l-32-3c6-42 35-63 81-64 48-1 79 21 79 65 0 36-21 52-52 59" transform="matrix(0.07469137012958527, 0, 0, 0.07469137012958527, 0, 0)"/>
        <path d="M101-251c82-7 93 87 43 132L82-64C71-53 59-42 53-27h129V0H18c2-99 128-94 128-182 0-28-16-43-45-43s-46 15-49 41l-32-3c6-41 34-60 81-64" transform="matrix(0.07469137012958527, 0, 0, 0.07469137012958527, 14.938271522521973, 0)"/>
      </g>
      <path d="M155-56V0h-30v-56H8v-25l114-167h33v167h35v25h-35zm-30-156c-27 46-58 90-88 131h88v-131" id="z"/>
      <path d="M155-56V0h-30v-56H8v-25l114-167h33v167h35v25h-35zm-30-156c-27 46-58 90-88 131h88v-131" id="n" transform="matrix(0.07469137012958527, 0, 0, 0.07469137012958527, 0, 0)"/>
      <path d="M126-127c33 6 58 20 58 59 0 88-139 92-164 29-3-8-5-16-6-25l32-3c6 27 21 44 54 44 32 0 52-15 52-46 0-38-36-46-79-43v-28c39 1 72-4 72-42 0-27-17-43-46-43-28 0-47 15-49 41l-32-3c6-42 35-63 81-64 48-1 79 21 79 65 0 36-21 52-52 59" id="o" transform="matrix(0.07469137012958527, 0, 0, 0.07469137012958527, 0, 0)"/>
      <path d="M64 0c3-98 48-159 88-221H18v-27h164v26C143-157 98-101 97 0H64" id="A"/>
      <g id="p" transform="matrix(0.07469137012958527, 0, 0, 0.07469137012958527, 0, 0)">
        <path d="M27 0v-27h64v-190l-56 39v-29l58-41h29v221h61V0H27" transform="matrix(0.07469137012958527, 0, 0, 0.07469137012958527, 0, 0)"/>
        <path d="M110-160c48 1 74 30 74 79 0 53-28 85-80 85-65 0-83-55-86-122-5-90 50-162 133-122 14 7 22 21 27 39l-31 6c-5-40-67-38-82-6-9 19-15 44-15 74 11-20 30-34 60-33zm-7 138c34 0 49-23 49-58s-16-56-50-56c-29 0-50 16-49 49 1 36 15 65 50 65" transform="matrix(0.07469137012958527, 0, 0, 0.07469137012958527, 14.938271522521973, 0)"/>
      </g>
    </defs>
  </g>
</svg>