<svg xmlns="http://www.w3.org/2000/svg" xmlns:xlink="http://www.w3.org/1999/xlink" xmlns:lucid="lucid" width="580" height="360"><g transform="translate(0 0)" lucid:page-tab-id="0_0"><path d="M0 0h1870.4v1323.2H0z" fill="#fff"/><path d="M80 170c0 16.57-13.43 30-30 30s-30-13.43-30-30 13.43-30 30-30 30 13.43 30 30z" stroke="#333" stroke-width="2" fill="#fff"/><use xlink:href="#a" transform="matrix(1,0,0,1,25,145) translate(16.980308641975313 34.2361111111111)"/><path d="M240 130c0 16.57-13.43 30-30 30s-30-13.43-30-30 13.43-30 30-30 30 13.43 30 30z" stroke="#333" stroke-width="2" fill="#fff"/><use xlink:href="#b" transform="matrix(1,0,0,1,185,105) translate(16.980308641975313 34.2361111111111)"/><path d="M160 270c0 16.57-13.43 30-30 30s-30-13.43-30-30 13.43-30 30-30 30 13.43 30 30z" stroke="#333" stroke-width="2" fill="#fff"/><use xlink:href="#c" transform="matrix(1,0,0,1,105,245) translate(16.980308641975313 34.2361111111111)"/><path d="M280 310c0 16.57-13.43 30-30 30s-30-13.43-30-30 13.43-30 30-30 30 13.43 30 30z" stroke="#333" stroke-width="2" fill="#fff"/><use xlink:href="#d" transform="matrix(1,0,0,1,225,285) translate(16.980308641975313 34.2361111111111)"/><path d="M420 290c0 16.57-13.43 30-30 30s-30-13.43-30-30 13.43-30 30-30 30 13.43 30 30z" stroke="#333" stroke-width="2" fill="#fff"/><use xlink:href="#e" transform="matrix(1,0,0,1,365,265) translate(16.980308641975313 34.2361111111111)"/><path d="M380 170c0 16.57-13.43 30-30 30s-30-13.43-30-30 13.43-30 30-30 30 13.43 30 30z" stroke="#333" stroke-width="2" fill="#fff"/><use xlink:href="#f" transform="matrix(1,0,0,1,325,145) translate(16.980308641975313 34.2361111111111)"/><path d="M400 50c0 16.57-13.43 30-30 30s-30-13.43-30-30 13.43-30 30-30 30 13.43 30 30z" stroke="#333" stroke-width="2" fill="#fff"/><use xlink:href="#g" transform="matrix(1,0,0,1,345,25) translate(16.980308641975313 34.2361111111111)"/><path d="M520 150c0 16.57-13.43 30-30 30s-30-13.43-30-30 13.43-30 30-30 30 13.43 30 30z" stroke="#333" stroke-width="2" fill="#fff"/><use xlink:href="#h" transform="matrix(1,0,0,1,465,125) translate(16.980308641975313 34.2361111111111)"/><path d="M560 270c0 16.57-13.43 30-30 30s-30-13.43-30-30 13.43-30 30-30 30 13.43 30 30z" stroke="#333" stroke-width="2" fill="#fff"/><use xlink:href="#i" transform="matrix(1,0,0,1,505,245) translate(16.980308641975313 34.2361111111111)"/><path d="M81.04 162.24L161.98 142" stroke="#333" stroke-width="2" fill="none"/><path d="M81.3 163.2l-1.04.27-.13-.8-.38-1.14 1.07-.27z" stroke="#333" stroke-width=".05" fill="#333"/><path d="M176.8 138.3l-12.72 7.96-2.25-9z" stroke="#333" stroke-width="2" fill="#333"/><path d="M194.14 157.75l-39.6 69.3" stroke="#333" stroke-width="2" fill="none"/><path d="M195.16 157.23l.35.15-.5.9-1.74-1 .54-.95z" stroke="#333" stroke-width=".05" fill="#333"/><path d="M146.97 240.3l3.05-14.68 8.05 4.6z" stroke="#333" stroke-width="2" fill="#333"/><path d="M219.66 299.9l-42.7-14.25" stroke="#333" stroke-width="2" fill="none"/><path d="M220.96 299.26l-.26.6-.34 1.3-1.04-.33.63-1.9z" stroke="#333" stroke-width=".05" fill="#333"/><path d="M162.46 280.82l15 .12-2.93 8.8z" stroke="#333" stroke-width="2" fill="#333"/><path d="M341.46 64.27L254.2 107.9" stroke="#333" stroke-width="2" fill="none"/><path d="M342.82 64.7l-.94.48-.9-1.8.9-.44z" stroke="#333" stroke-width=".05" fill="#333"/><path d="M240.54 114.73l10.7-10.53 4.13 8.3z" stroke="#333" stroke-width="2" fill="#333"/><path d="M240.7 138.77l61.78 17.65" stroke="#333" stroke-width="2" fill="none"/><path d="M241 137.8l-.56 1.94-.96-.28.5-1.94z" stroke="#333" stroke-width=".05" fill="#333"/><path d="M317.16 160.62l-15 .54 2.56-8.92z" stroke="#333" stroke-width="2" fill="#333"/><path d="M465.46 129.55l-57.48-47.9" stroke="#333" stroke-width="2" fill="none"/><path d="M466.9 129.46l-1.28 1.38-.06.1-.76-.64 1.28-1.53z" stroke="#333" stroke-width=".05" fill="#333"/><path d="M396.26 71.88l13.92 5.57-5.93 7.12z" stroke="#333" stroke-width="2" fill="#333"/><path d="M500.1 180.27l14.28 42.86" stroke="#333" stroke-width="2" fill="none"/><path d="M501.05 179.98l-1.9.63-.33-.97 1.9-.63z" stroke="#333" stroke-width=".05" fill="#333"/><path d="M519.2 237.6l-8.9-12.06 8.8-2.93z" stroke="#333" stroke-width="2" fill="#333"/><path d="M498.42 274.5l-59.5 8.5" stroke="#333" stroke-width="2" fill="none"/><path d="M499.56 275.36l-1.03.15-.28-1.97 1-.15z" stroke="#333" stroke-width=".05" fill="#333"/><path d="M423.8 285.17l13.46-6.6 1.3 9.17z" stroke="#333" stroke-width="2" fill="#333"/><path d="M360.1 200.27l14.28 42.86" stroke="#333" stroke-width="2" fill="none"/><path d="M361.05 199.98l-1.9.63-.33-.97 1.9-.63z" stroke="#333" stroke-width=".05" fill="#333"/><path d="M379.2 257.6l-8.9-12.06 8.8-2.93z" stroke="#333" stroke-width="2" fill="#333"/><path d="M377.96 185.54l108.78 60.42" stroke="#333" stroke-width="2" fill="none"/><path d="M378.47 184.67l-.97 1.75-.96-.53.7-1.06.3-.7z" stroke="#333" stroke-width=".05" fill="#333"/><path d="M500.08 253.38l-14.72-2.88 4.5-8.1z" stroke="#333" stroke-width="2" fill="#333"/><path d="M358.42 294.5l-59.5 8.5" stroke="#333" stroke-width="2" fill="none"/><path d="M359.56 295.36l-1.03.15-.28-1.97 1-.15z" stroke="#333" stroke-width=".05" fill="#333"/><path d="M283.8 305.17l13.46-6.6 1.3 9.17z" stroke="#333" stroke-width="2" fill="#333"/><path d="M140 50c0 16.57-13.43 30-30 30S80 66.57 80 50s13.43-30 30-30 30 13.43 30 30z" stroke="#333" stroke-width="2" fill="#fff"/><use xlink:href="#j" transform="matrix(1,0,0,1,85,25) translate(16.980308641975313 34.2361111111111)"/><path d="M185.03 110.02l-36.4-29.1" stroke="#333" stroke-width="2" fill="none"/><path d="M186.5 109.9l-.88.94-.4.6-.84-.65 1.25-1.58z" stroke="#333" stroke-width=".05" fill="#333"/><path d="M136.72 71.38l14.04 5.3-5.8 7.23z" stroke="#333" stroke-width="2" fill="#333"/><path d="M338 50H159.5" stroke="#333" stroke-width="2" fill="none"/><path d="M339 49.98l.03 1.02h-1.06v-2h1.1z" stroke="#333" stroke-width=".05" fill="#333"/><path d="M144.24 50l14.26-4.64v9.28z" stroke="#333" stroke-width="2" fill="#333"/><defs><path fill="#333" d="M155-56V0h-30v-56H8v-25l114-167h33v167h35v25h-35zm-30-156c-27 46-58 90-88 131h88v-131" id="k"/><use transform="matrix(0.08024691358024688,0,0,0.08024691358024688,0,0)" xlink:href="#k" id="a"/><path fill="#333" d="M27 0v-27h64v-190l-56 39v-29l58-41h29v221h61V0H27" id="l"/><use transform="matrix(0.08024691358024688,0,0,0.08024691358024688,0,0)" xlink:href="#l" id="b"/><path fill="#333" d="M126-127c33 6 58 20 58 59 0 88-139 92-164 29-3-8-5-16-6-25l32-3c6 27 21 44 54 44 32 0 52-15 52-46 0-38-36-46-79-43v-28c39 1 72-4 72-42 0-27-17-43-46-43-28 0-47 15-49 41l-32-3c6-42 35-63 81-64 48-1 79 21 79 65 0 36-21 52-52 59" id="m"/><use transform="matrix(0.08024691358024688,0,0,0.08024691358024688,0,0)" xlink:href="#m" id="c"/><path fill="#333" d="M64 0c3-98 48-159 88-221H18v-27h164v26C143-157 98-101 97 0H64" id="n"/><use transform="matrix(0.08024691358024688,0,0,0.08024691358024688,0,0)" xlink:href="#n" id="d"/><path fill="#333" d="M134-131c28 9 52 24 51 62-1 50-34 73-85 73S17-19 16-69c0-36 21-54 49-61-75-25-45-126 34-121 46 3 78 18 79 63 0 33-17 51-44 57zm-34-11c31 1 46-15 46-44 0-28-17-43-47-42-29 0-46 13-45 42 1 28 16 44 46 44zm1 122c35 0 51-18 51-52 0-30-18-46-53-46-33 0-51 17-51 47 0 34 19 51 53 51" id="o"/><use transform="matrix(0.08024691358024688,0,0,0.08024691358024688,0,0)" xlink:href="#o" id="e"/><path fill="#333" d="M54-142c48-35 137-8 131 61C196 18 31 33 14-55l32-4c7 23 22 37 52 37 35-1 51-22 54-58 4-55-73-65-99-34H22l8-134h141v27H59" id="p"/><use transform="matrix(0.08024691358024688,0,0,0.08024691358024688,0,0)" xlink:href="#p" id="f"/><path fill="#333" d="M101-251c82-7 93 87 43 132L82-64C71-53 59-42 53-27h129V0H18c2-99 128-94 128-182 0-28-16-43-45-43s-46 15-49 41l-32-3c6-41 34-60 81-64" id="q"/><use transform="matrix(0.08024691358024688,0,0,0.08024691358024688,0,0)" xlink:href="#q" id="g"/><path fill="#333" d="M110-160c48 1 74 30 74 79 0 53-28 85-80 85-65 0-83-55-86-122-5-90 50-162 133-122 14 7 22 21 27 39l-31 6c-5-40-67-38-82-6-9 19-15 44-15 74 11-20 30-34 60-33zm-7 138c34 0 49-23 49-58s-16-56-50-56c-29 0-50 16-49 49 1 36 15 65 50 65" id="r"/><use transform="matrix(0.08024691358024688,0,0,0.08024691358024688,0,0)" xlink:href="#r" id="h"/><path fill="#333" d="M99-251c64 0 84 50 84 122C183-37 130 33 47-8c-14-7-20-23-25-40l30-5c6 39 69 39 84 7 9-19 16-44 16-74-10 22-31 35-62 35-49 0-73-33-73-83 0-54 28-83 82-83zm-1 141c31-1 51-18 51-49 0-36-14-67-51-67-34 0-49 23-49 58 0 34 15 58 49 58" id="s"/><use transform="matrix(0.08024691358024688,0,0,0.08024691358024688,0,0)" xlink:href="#s" id="i"/><path fill="#333" d="M101-251c68 0 85 55 85 127S166 4 100 4C33 4 14-52 14-124c0-73 17-127 87-127zm-1 229c47 0 54-49 54-102s-4-102-53-102c-51 0-55 48-55 102 0 53 5 102 54 102" id="t"/><use transform="matrix(0.08024691358024688,0,0,0.08024691358024688,0,0)" xlink:href="#t" id="j"/></defs></g></svg>