<svg xmlns="http://www.w3.org/2000/svg" xmlns:xlink="http://www.w3.org/1999/xlink" xmlns:lucid="lucid" width="480" height="500"><g transform="translate(0 0)" lucid:page-tab-id="0_0"><path d="M0 0h1870.4v1323.2H0z" fill="#fff"/><path d="M200 50c0 16.57-13.43 30-30 30s-30-13.43-30-30 13.43-30 30-30 30 13.43 30 30z" stroke="#333" stroke-width="2" fill="#fff"/><use xlink:href="#a" transform="matrix(1,0,0,1,145,25) translate(8.955617283950625 34.2361111111111)"/><path d="M80 150c0 16.57-13.43 30-30 30s-30-13.43-30-30 13.43-30 30-30 30 13.43 30 30z" stroke="#333" stroke-width="2" fill="#fff"/><use xlink:href="#b" transform="matrix(1,0,0,1,25,125) translate(8.955617283950625 34.2361111111111)"/><path d="M380 150c0 16.57-13.43 30-30 30s-30-13.43-30-30 13.43-30 30-30 30 13.43 30 30z" stroke="#333" stroke-width="2" fill="#fff"/><use xlink:href="#c" transform="matrix(1,0,0,1,325,125) translate(8.955617283950625 34.2361111111111)"/><path d="M160 250c0 16.57-13.43 30-30 30s-30-13.43-30-30 13.43-30 30-30 30 13.43 30 30z" stroke="#333" stroke-width="2" fill="#fff"/><use xlink:href="#d" transform="matrix(1,0,0,1,105,225) translate(8.955617283950625 34.2361111111111)"/><path d="M300 250c0 16.57-13.43 30-30 30s-30-13.43-30-30 13.43-30 30-30 30 13.43 30 30z" stroke="#333" stroke-width="2" fill="#fff"/><use xlink:href="#e" transform="matrix(1,0,0,1,245,225) translate(8.955617283950625 34.2361111111111)"/><path d="M460 250c0 16.57-13.43 30-30 30s-30-13.43-30-30 13.43-30 30-30 30 13.43 30 30z" stroke="#333" stroke-width="2" fill="#fff"/><use xlink:href="#f" transform="matrix(1,0,0,1,405,225) translate(8.955617283950625 34.2361111111111)"/><path d="M145.48 70.44l-70.96 59.12" stroke="#333" stroke-width="2" fill="none"/><path d="M146.85 70.6l-.75.62-1.28-1.54.82-.68zM75.18 130.32l-.82.68-1.2-1.6.74-.62z" stroke="#333" stroke-width=".05" fill="#333"/><path d="M197.96 65.54l124.08 68.92" stroke="#333" stroke-width="2" fill="none"/><path d="M198.47 64.67l-.97 1.75-.96-.53.7-1.06.3-.7zM323.46 134.1l-.7 1.06-.3.7-.93-.53.97-1.75z" stroke="#333" stroke-width=".05" fill="#333"/><path d="M369.93 174.9l40.14 50.2" stroke="#333" stroke-width="2" fill="none"/><path d="M370.73 174.3l-1.56 1.26-.66-.82 1.6-1.22zM411.5 225.26l-1.6 1.22-.63-.8 1.56-1.24z" stroke="#333" stroke-width=".05" fill="#333"/><path d="M330.02 174.97l-40.04 50.06" stroke="#333" stroke-width="2" fill="none"/><path d="M330.84 174.38l.6.4-.65.84-1.58-1.25.7-.86zM290.78 225.63l-.7.86-.92-.88-.6-.4.65-.84z" stroke="#333" stroke-width=".05" fill="#333"/><path d="M69.93 174.9l40.14 50.2" stroke="#333" stroke-width="2" fill="none"/><path d="M70.73 174.3l-1.56 1.26-.66-.82 1.6-1.22zM111.5 225.26l-1.6 1.22-.63-.8 1.56-1.24z" stroke="#333" stroke-width=".05" fill="#333"/><path d="M240 350c0 16.57-13.43 30-30 30s-30-13.43-30-30 13.43-30 30-30 30 13.43 30 30z" stroke="#333" stroke-width="2" fill="#fff"/><use xlink:href="#g" transform="matrix(1,0,0,1,185,325) translate(8.955617283950625 34.2361111111111)"/><path d="M360 350c0 16.57-13.43 30-30 30s-30-13.43-30-30 13.43-30 30-30 30 13.43 30 30z" stroke="#333" stroke-width="2" fill="#fff"/><use xlink:href="#h" transform="matrix(1,0,0,1,305,325) translate(8.955617283950625 34.2361111111111)"/><path d="M320 450c0 16.57-13.43 30-30 30s-30-13.43-30-30 13.43-30 30-30 30 13.43 30 30z" stroke="#333" stroke-width="2" fill="#fff"/><use xlink:href="#i" transform="matrix(1,0,0,1,265,425) translate(8.955617283950625 34.2361111111111)"/><path d="M400 450c0 16.57-13.43 30-30 30s-30-13.43-30-30 13.43-30 30-30 30 13.43 30 30z" stroke="#333" stroke-width="2" fill="#fff"/><use xlink:href="#j" transform="matrix(1,0,0,1,345,425) translate(8.955617283950625 34.2361111111111)"/><path d="M253.57 277.38l-27.14 45.24" stroke="#333" stroke-width="2" fill="none"/><path d="M254.92 277.07l-.5.84-1.72-1 .55-.93zM227.3 323.1l-.55.93-1.67-1.1.5-.84z" stroke="#333" stroke-width=".05" fill="#333"/><path d="M286.44 277.4l27.12 45.2" stroke="#333" stroke-width="2" fill="none"/><path d="M287.3 276.9l-1.7 1.03-.56-.93 1.7-.9.06-.05zM314.96 323l-1.7.9-.06.05-.5-.85 1.7-1.03z" stroke="#333" stroke-width=".05" fill="#333"/><path d="M318.14 379.64l-16.28 40.72" stroke="#333" stroke-width="2" fill="none"/><path d="M319.43 379.12l-.37.92-1.85-.75.4-1zM302.8 420.7l-.4 1-1.83-.82.37-.92z" stroke="#333" stroke-width=".05" fill="#333"/><path d="M341.87 379.67l16.26 40.66" stroke="#333" stroke-width="2" fill="none"/><path d="M342.8 379.33l-1.85.74-.4-1 1.63-.55.25-.13zM359.45 420.94l-1.63.54-.25.13-.38-.93 1.85-.74z" stroke="#333" stroke-width=".05" fill="#333"/><defs><path fill="#333" d="M54-142c48-35 137-8 131 61C196 18 31 33 14-55l32-4c7 23 22 37 52 37 35-1 51-22 54-58 4-55-73-65-99-34H22l8-134h141v27H59" id="k"/><path fill="#333" d="M101-251c68 0 85 55 85 127S166 4 100 4C33 4 14-52 14-124c0-73 17-127 87-127zm-1 229c47 0 54-49 54-102s-4-102-53-102c-51 0-55 48-55 102 0 53 5 102 54 102" id="l"/><g id="a"><use transform="matrix(0.08024691358024688,0,0,0.08024691358024688,0,0)" xlink:href="#k"/><use transform="matrix(0.08024691358024688,0,0,0.08024691358024688,16.049382716049376,0)" xlink:href="#l"/></g><path fill="#333" d="M126-127c33 6 58 20 58 59 0 88-139 92-164 29-3-8-5-16-6-25l32-3c6 27 21 44 54 44 32 0 52-15 52-46 0-38-36-46-79-43v-28c39 1 72-4 72-42 0-27-17-43-46-43-28 0-47 15-49 41l-32-3c6-42 35-63 81-64 48-1 79 21 79 65 0 36-21 52-52 59" id="m"/><g id="b"><use transform="matrix(0.08024691358024688,0,0,0.08024691358024688,0,0)" xlink:href="#m"/><use transform="matrix(0.08024691358024688,0,0,0.08024691358024688,16.049382716049376,0)" xlink:href="#k"/></g><path fill="#333" d="M134-131c28 9 52 24 51 62-1 50-34 73-85 73S17-19 16-69c0-36 21-54 49-61-75-25-45-126 34-121 46 3 78 18 79 63 0 33-17 51-44 57zm-34-11c31 1 46-15 46-44 0-28-17-43-47-42-29 0-46 13-45 42 1 28 16 44 46 44zm1 122c35 0 51-18 51-52 0-30-18-46-53-46-33 0-51 17-51 47 0 34 19 51 53 51" id="n"/><path fill="#333" d="M64 0c3-98 48-159 88-221H18v-27h164v26C143-157 98-101 97 0H64" id="o"/><g id="c"><use transform="matrix(0.08024691358024688,0,0,0.08024691358024688,0,0)" xlink:href="#n"/><use transform="matrix(0.08024691358024688,0,0,0.08024691358024688,16.049382716049376,0)" xlink:href="#o"/></g><path fill="#333" d="M155-56V0h-30v-56H8v-25l114-167h33v167h35v25h-35zm-30-156c-27 46-58 90-88 131h88v-131" id="p"/><path fill="#333" d="M101-251c82-7 93 87 43 132L82-64C71-53 59-42 53-27h129V0H18c2-99 128-94 128-182 0-28-16-43-45-43s-46 15-49 41l-32-3c6-41 34-60 81-64" id="q"/><g id="d"><use transform="matrix(0.08024691358024688,0,0,0.08024691358024688,0,0)" xlink:href="#p"/><use transform="matrix(0.08024691358024688,0,0,0.08024691358024688,16.049382716049376,0)" xlink:href="#q"/></g><path fill="#333" d="M110-160c48 1 74 30 74 79 0 53-28 85-80 85-65 0-83-55-86-122-5-90 50-162 133-122 14 7 22 21 27 39l-31 6c-5-40-67-38-82-6-9 19-15 44-15 74 11-20 30-34 60-33zm-7 138c34 0 49-23 49-58s-16-56-50-56c-29 0-50 16-49 49 1 36 15 65 50 65" id="r"/><g id="e"><use transform="matrix(0.08024691358024688,0,0,0.08024691358024688,0,0)" xlink:href="#r"/><use transform="matrix(0.08024691358024688,0,0,0.08024691358024688,16.049382716049376,0)" xlink:href="#r"/></g><path fill="#333" d="M99-251c64 0 84 50 84 122C183-37 130 33 47-8c-14-7-20-23-25-40l30-5c6 39 69 39 84 7 9-19 16-44 16-74-10 22-31 35-62 35-49 0-73-33-73-83 0-54 28-83 82-83zm-1 141c31-1 51-18 51-49 0-36-14-67-51-67-34 0-49 23-49 58 0 34 15 58 49 58" id="s"/><g id="f"><use transform="matrix(0.08024691358024688,0,0,0.08024691358024688,0,0)" xlink:href="#s"/><use transform="matrix(0.08024691358024688,0,0,0.08024691358024688,16.049382716049376,0)" xlink:href="#n"/></g><g id="g"><use transform="matrix(0.08024691358024688,0,0,0.08024691358024688,0,0)" xlink:href="#k"/><use transform="matrix(0.08024691358024688,0,0,0.08024691358024688,16.049382716049376,0)" xlink:href="#p"/></g><g id="h"><use transform="matrix(0.08024691358024688,0,0,0.08024691358024688,0,0)" xlink:href="#o"/><use transform="matrix(0.08024691358024688,0,0,0.08024691358024688,16.049382716049376,0)" xlink:href="#m"/></g><g id="i"><use transform="matrix(0.08024691358024688,0,0,0.08024691358024688,0,0)" xlink:href="#o"/><use transform="matrix(0.08024691358024688,0,0,0.08024691358024688,16.049382716049376,0)" xlink:href="#l"/></g><path fill="#333" d="M27 0v-27h64v-190l-56 39v-29l58-41h29v221h61V0H27" id="t"/><g id="j"><use transform="matrix(0.08024691358024688,0,0,0.08024691358024688,0,0)" xlink:href="#n"/><use transform="matrix(0.08024691358024688,0,0,0.08024691358024688,16.049382716049376,0)" xlink:href="#t"/></g></defs></g></svg>